<?xml version="1.0" encoding="utf-8"?>
<!-- Svg Vector Icons : http://www.onlinewebfonts.com/icon -->
<!DOCTYPE svg PUBLIC "-//W3C//DTD SVG 1.1//EN" "http://www.w3.org/Graphics/SVG/1.1/DTD/svg11.dtd">
<svg version="1.1" xmlns="http://www.w3.org/2000/svg" xmlns:xlink="http://www.w3.org/1999/xlink" x="0px" y="0px" viewBox="0 0 256 256" enable-background="new 0 0 256 256" xml:space="preserve">
<metadata> Svg Vector Icons : http://www.onlinewebfonts.com/icon </metadata>
<g><g><g><path fill="#000000" stroke="#000000" stroke-width="5" d="M114.9,11.4c-19.9,5.2-35.1,20.8-39.8,40.7c-0.5,2.4-1,5.3-1,6.4v2.2H56c-17.2,0-18.1,0.1-19.4,1.3c-0.7,0.7-1.3,2-1.3,2.9c0,1.9-11.6,168.7-12.2,174.4c-0.3,3.5-0.2,4.3,1,5.5c1.3,1.3,1.8,1.3,103.9,1.3c102.4,0,102.5,0,103.9-1.3c1.2-1.2,1.3-1.9,1-5.1c-0.2-2-2.2-29.3-4.3-60.6c-2.1-31.3-4.8-69.3-5.8-84.5c-1.1-15.2-2-28.4-2-29.4c0-1-0.6-2.4-1.3-3.1c-1.3-1.3-2.2-1.3-19.4-1.3h-18.1v-2.2c0-3.6-2.4-12.2-4.9-17.5c-7.1-15-20-25.5-36.1-29.6C133.9,9.5,121.8,9.5,114.9,11.4z M138.2,17.6c5.7,1.2,13.8,5.1,19.1,9.1c4.9,3.7,10.7,10.9,13.4,16.6c2,4.3,4.6,13.1,4.6,15.9v1.5H128H80.7v-1.5c0-2.8,2.6-11.6,4.6-15.9c2.8-5.8,8.4-12.8,13.3-16.4c5.3-4,13.5-8,18.9-9.1C123.1,16.4,132.5,16.4,138.2,17.6z M214.1,68.1c0,1.1,11,158.8,11.6,165.6l0.4,5.1h-98c-60.4,0-98-0.3-98-0.6c0-0.4,2.6-38.6,5.9-85c3.2-46.4,5.9-84.7,5.9-85.2c0-0.6,17.7-0.8,86.1-0.8C200.6,67.2,214.1,67.3,214.1,68.1z"/></g></g></g>
</svg>